Coordinates
version=1
nRows=38
nColumns=12
inDegrees=yes

Units are S.I. units (second, meters, Newtons, ...)
Angles are in degrees

endheader
time	SC_y	SC_z	SC_x	AC_y	AC_z	AC_x	GH_y	GH_z	GH_yy	EL_x	PS_y
       0.0              -16.06          3.359          51.38          46.61        0.03949          10.08         -176.9          67.95         -129.6           25.7          154.5
  0.003607              -16.06          3.361          51.38          46.61        0.03883          10.07         -176.9          67.95         -129.6          25.71          154.5
  0.007214              -16.06          3.364          51.38          46.61        0.03814          10.07         -176.9          67.94         -129.6          25.72          154.5
   0.01082              -16.06          3.366          51.39          46.61         0.0374          10.06         -176.9          67.93         -129.6          25.74          154.5
   0.01443              -16.06          3.368          51.39          46.62        0.03661          10.06         -176.9          67.92         -129.6          25.75          154.5
   0.01803              -16.06          3.371           51.4          46.62        0.03577          10.05         -176.9           67.9         -129.6          25.77          154.5
   0.02164              -16.05          3.374           51.4          46.62        0.03488          10.05         -176.8          67.89         -129.6          25.78          154.5
   0.02525              -16.05          3.377          51.41          46.63        0.03392          10.04         -176.8          67.88         -129.7           25.8          154.5
   0.02886              -16.05           3.38          51.42          46.63        0.03289          10.04         -176.8          67.87         -129.7          25.82          154.5
   0.03246              -16.05          3.384          51.42          46.64        0.03179          10.03         -176.8          67.85         -129.7          25.84          154.5
   0.03607              -16.05          3.387          51.43          46.64        0.03061          10.02         -176.8          67.83         -129.7          25.86          154.5
   0.03968              -16.05          3.392          51.44          46.64        0.02934          10.02         -176.8          67.82         -129.7          25.88          154.5
   0.04328              -16.05          3.396          51.45          46.65        0.02797          10.01         -176.8           67.8         -129.7           25.9          154.5
   0.04689              -16.05          3.401          51.45          46.65        0.02649           10.0         -176.8          67.78         -129.7          25.93          154.5
    0.0505              -16.05          3.406          51.46          46.66        0.02489          9.992         -176.8          67.76         -129.7          25.96          154.5
    0.0541              -16.04          3.411          51.47          46.67        0.02315          9.983         -176.8          67.73         -129.7          25.99          154.5
   0.05771              -16.04          3.417          51.49          46.67        0.02126          9.972         -176.7          67.71         -129.7          26.02          154.5
   0.06132              -16.04          3.424           51.5          46.68         0.0192           9.96         -176.7          67.68         -129.7          26.06          154.5
   0.06492              -16.04          3.431          51.51          46.69        0.01696          9.947         -176.7          67.65         -129.7           26.1          154.5
   0.06853              -16.04          3.439          51.53           46.7         0.0145          9.934         -176.7          67.62         -129.7          26.14          154.5
   0.07214              -16.03          3.447          51.54          46.71         0.0118          9.918         -176.7          67.58         -129.8          26.19          154.5
   0.07574              -16.03          3.457          51.56          46.72       0.008825          9.901         -176.6          67.54         -129.8          26.24          154.5
   0.07935              -16.03          3.467          51.58          46.73       0.005542          9.883         -176.6           67.5         -129.8           26.3          154.5
   0.08296              -16.02          3.479           51.6          46.74       0.001905          9.862         -176.6          67.45         -129.8          26.36          154.5
   0.08657              -16.02          3.492          51.63          46.76      -0.002139          9.839         -176.6          67.39         -129.8          26.43          154.5
   0.09017              -16.02          3.506          51.65          46.77      -0.006651          9.814         -176.5          67.33         -129.8          26.51          154.5
   0.09378              -16.01          3.522          51.68          46.79       -0.01171          9.785         -176.5          67.26         -129.9           26.6          154.5
   0.09739              -16.01           3.54          51.72          46.81       -0.01739          9.753         -176.5          67.18         -129.9           26.7          154.5
     0.101               -16.0          3.561          51.76          46.84       -0.02382          9.716         -176.4           67.1         -129.9          26.81          154.4
    0.1046              -15.99          3.584           51.8          46.86       -0.03111          9.675         -176.3           67.0         -130.0          26.94          154.4
    0.1082              -15.99           3.61          51.85          46.89       -0.03944          9.628         -176.3          66.89         -130.0          27.09          154.4
    0.1118              -15.98          3.641          51.91          46.93       -0.04899          9.574         -176.2          66.76         -130.0          27.25          154.4
    0.1154              -15.97          3.676          51.98          46.97       -0.06003          9.511         -176.1          66.61         -130.1          27.45          154.4
     0.119              -15.96          3.716          52.05          47.01       -0.07284          9.438         -176.0          66.43         -130.1          27.67          154.4
    0.1226              -15.94          3.764          52.14          47.07       -0.08784          9.353         -175.9          66.23         -130.2          27.93          154.4
    0.1262              -15.93           3.82          52.25          47.13        -0.1055          9.253         -175.8          65.99         -130.3          28.24          154.4
    0.1298              -15.91          3.887          52.38          47.21        -0.1265          9.134         -175.6          65.71         -130.4          28.61          154.4
    0.1335              -15.88          3.967          52.53           47.3        -0.1517          8.991         -175.4          65.37         -130.5          29.05          154.3
